<?xml version="1.0" encoding="utf-8"?>
<!-- Generator: Adobe Illustrator 27.5.0, SVG Export Plug-In . SVG Version: 6.00 Build 0)  -->
<svg version="1.1" id="Ebene_1" xmlns="http://www.w3.org/2000/svg" xmlns:xlink="http://www.w3.org/1999/xlink" x="0px" y="0px"
	 viewBox="0 0 28 32" style="enable-background:new 0 0 28 32;" xml:space="preserve">
<style type="text/css">
	.st0{fill:#DDDDDD;}
</style>
<path class="st0" d="M6,3L5.2,3.8C4.4,4.6,4,5.6,4,6.7v8.3c0,0.7,0.3,1.3,0.9,1.7L5.5,17c0.9,0.6,2,0.7,3,0.2l0.2-0.1
	c0.2-0.1,0.3-0.2,0.5-0.3l3.1-2.3c0.4-0.3,1-0.3,1.4,0c0.6,0.5,0.6,1.4,0,1.9l-8,5.5C4.6,22.6,4,23.7,4,25h20l1.8-9.9
	c0.1-0.7,0.2-1.4,0.2-2.1V12c0-6.6-5.4-12-12-12H5.2C4.6,0,4,0.6,4,1.2c0,0.5,0.3,0.9,0.7,1.1L6,3z M7.5,7.2C7.5,6.6,8.1,6,8.8,6
	S10,6.6,10,7.2S9.4,8.5,8.8,8.5S7.5,7.9,7.5,7.2z M1.4,29.6c-0.3,0.3-0.4,0.6-0.4,1C1,31.4,1.6,32,2.4,32h23.2
	c0.8,0,1.4-0.6,1.4-1.4c0-0.4-0.1-0.7-0.4-1L24,27H4C4,27,1.4,29.6,1.4,29.6z"/>
</svg>
